<?xml version="1.0" encoding="utf-8"?>
<svg viewBox="0 0 500 500" width="500" height="500" xmlns="http://www.w3.org/2000/svg">
  <path d="M 388.831 69.857 C 395.93 50.611 402.844 42.95 406.406 40.073 C 409.054 37.929 411.361 37.114 413.255 37.642 C 416.712 38.619 420.595 44.083 423.527 52.245 C 432.941 78.477 432.171 125.111 422.721 164.216 L 388.831 69.857 Z M 141.565 132.902 C 148.066 106.099 150.453 75.727 148.282 50.836 L 110.586 46.635 L 141.565 132.902 Z M 391.822 35.204 L 131.414 6.214 C 129.252 5.973 126.885 7.478 125.266 8.809 C 122.094 11.404 116.258 17.731 109.999 32.705 L 376.875 62.394 C 381.336 50.939 386.402 41.741 391.84 35.223 L 391.822 35.204 Z M 194.026 293.459 L 194.026 232.317 L 203.328 233.346 L 239.847 237.825 L 239.847 298.785 L 194.026 293.459 Z M 207.86 258.583 C 207.917 262.109 209.626 265.402 212.476 267.48 L 210.452 288.593 L 225.151 290.097 L 221.694 268.482 C 224.575 266.936 226.271 263.832 226.016 260.572 C 225.695 255.183 221.757 250.699 216.454 249.686 C 216.454 249.686 216.6 249.772 216.566 249.772 C 211.422 249.185 206.995 253.145 207.86 258.506 L 207.86 258.583 Z M 253.681 314.305 L 180.194 305.797 L 180.194 230.822 L 179.286 230.745 C 178.74 233.874 176.163 236.253 173 236.546 C 176.182 237.664 178.091 240.916 177.522 244.239 C 176.951 247.601 174.015 250.045 170.605 249.998 C 177.914 253.46 174.358 264.503 166.404 263.053 C 170.787 266.073 170.255 272.708 165.448 274.993 C 163.561 275.89 161.369 275.888 159.487 274.984 C 162.91 279.07 160.627 285.331 155.376 286.253 C 152.939 286.681 150.46 285.777 148.869 283.881 L 148.869 283.959 C 149.397 286.833 148.063 289.731 145.532 291.194 L 153.426 295.819 L 153.426 308.139 L 143.051 314.305 L 132.677 308.149 L 132.677 295.819 L 139.724 291.652 C 137.493 290.794 135.845 288.87 135.34 286.535 C 135.336 286.506 135.336 286.476 135.34 286.449 C 133.437 291.422 126.864 292.469 123.509 288.336 C 122.098 286.597 121.616 284.284 122.214 282.124 C 116.292 288.363 106.571 280.34 111.571 273.341 C 104.356 277.249 97.551 267.569 103.671 262.102 C 95.741 264.403 91.176 253.384 98.404 249.401 C 93.165 250.344 88.868 245.261 90.67 240.252 C 91.469 238.037 93.336 236.38 95.63 235.854 C 87.595 234.948 87.375 223.35 95.37 222.141 C 94.792 222 94.278 221.731 93.789 221.483 L 78.883 219.876 L 79.402 364.353 L 346.71 394.174 L 346.191 250.801 L 253.681 239.519 L 253.681 314.305 Z M 374.774 172.516 L 378.855 174.166 L 379.64 174.667 L 413.116 178.395 L 393.007 122.395 L 381.923 154.385 C 381.784 154.784 378.976 162.859 374.774 172.532 L 374.774 172.516 Z M 194.477 138.157 L 198.799 142.903 L 209.822 133.264 L 228.367 131.293 L 242.727 144.564 L 251.815 152.112 L 267.843 144.079 L 270.818 144.512 C 270.92 143.934 271.034 143.353 271.145 142.782 C 273.808 128.864 277.5 116.708 277.657 116.198 L 289.233 78.233 L 303.827 115.16 L 311.106 133.678 L 320.322 122.967 L 339.463 100.721 L 344.461 129.642 L 347.307 146.155 L 362.089 137.82 L 392.427 120.711 L 376.451 76.271 L 162.159 52.4 C 164.328 82.608 160.559 119.25 151.445 149.232 L 153.453 149.232 L 159.505 138.114 L 194.483 138.114 L 194.477 138.157 Z M 98.259 222.357 C 104.83 224.174 105.089 233.394 98.63 235.577 C 105.319 236.325 107.103 245.22 101.224 248.493 C 107.841 248.02 111.264 256.23 106.273 260.597 C 112.596 258.77 117.658 265.971 113.795 271.302 C 119.23 268.258 125.601 273.391 123.789 279.35 C 127.706 275.266 134.6 277.358 135.591 282.93 C 137.368 277.991 143.787 276.755 147.271 280.681 C 146.16 275.146 151.791 270.682 156.928 273.029 C 152.982 268.042 157.295 260.82 163.559 261.929 C 158.01 258.003 160.859 249.265 167.658 249.367 C 161.333 246.338 163.01 236.904 169.991 236.244 C 167.071 235.235 165.17 232.411 165.341 229.327 L 99.26 222.184 C 98.907 222.348 98.616 222.314 98.259 222.357 Z M 416.021 342.601 L 415.511 200.933 L 408.016 206.985 L 360.023 247.439 L 360.526 387.499 L 416.021 342.601 Z M 393.344 199.774 L 372.5 186.573 L 368.886 185.112 C 363.776 195.072 357.31 204.998 349.294 209.215 C 344.591 211.705 338.728 212.969 331.864 212.969 C 322.243 212.969 310.466 210.454 299.573 206.052 C 290.926 202.594 279.428 196.542 273.41 187.602 C 269.174 181.3 267.67 172.239 268.819 159.14 L 249.989 168.59 L 233.563 154.929 L 223.69 145.825 L 215.771 146.69 L 198.089 162.106 L 188.579 151.991 L 167.649 151.991 L 152.424 179.656 L 147.494 173.431 L 143.673 177.624 L 134.371 191.76 L 123.746 196.005 L 118.434 203.86 L 107.886 203.86 L 105.485 209.052 L 171.971 216.151 C 172.358 215.199 172.947 214.341 173.701 213.642 C 176.177 211.355 179.942 211.186 182.614 213.244 C 182.568 213.18 182.527 213.11 182.493 213.037 C 178.21 205.804 188.076 198.668 193.621 204.932 C 199.163 211.196 190.883 220.125 184.223 214.992 C 184.705 215.752 185.033 216.601 185.19 217.491 L 204.746 219.599 L 350.461 237.384 L 394.978 199.879 L 393.344 199.774 Z M 368.843 149.863 L 336.957 167.837 L 330.785 131.984 L 306.577 160.091 L 290.901 120.226 C 290.901 120.226 276.505 167.413 284.849 179.882 C 291.498 189.78 315.471 199.119 331.82 199.119 C 336.145 199.119 339.973 198.461 342.775 196.975 C 354.706 190.654 368.843 149.863 368.843 149.863 Z M 94.704 383.989 L 94.704 383.816 C 94.704 380.557 87.607 377.912 78.858 377.912 C 70.109 377.912 63.01 380.557 63.01 383.816 C 63.01 386.59 68.197 388.916 75.114 389.547 L 75.114 389.72 C 75.114 392.979 82.213 395.626 90.962 395.626 C 99.711 395.626 106.808 392.979 106.808 389.72 C 106.801 386.945 101.639 384.619 94.704 383.989 Z M 397.305 389.72 C 388.546 389.72 381.456 392.367 381.456 395.626 C 381.456 398.886 388.553 401.53 397.305 401.53 C 406.054 401.53 413.15 398.886 413.15 395.626 C 413.15 392.367 406.02 389.747 397.261 389.747 L 397.305 389.72 Z M 431.887 375.645 C 423.129 375.645 416.039 378.292 416.039 381.551 C 416.039 384.81 423.138 387.455 431.887 387.455 C 440.636 387.455 447.735 384.81 447.735 381.551 C 447.735 378.292 440.627 375.645 431.878 375.645 L 431.887 375.645 Z" style="fill: rgb(82, 22, 79);"/>
</svg>